<?xml version="1.0" encoding="UTF-8" standalone="no"?>
<!DOCTYPE svg PUBLIC "-//W3C//DTD SVG 1.1//EN"
 "http://www.w3.org/Graphics/SVG/1.1/DTD/svg11.dtd">
<!-- Generated by graphviz version 2.40.1 (20161225.0304)
 -->
<!-- Title: dependencies Pages: 1 -->
<svg width="636pt" height="284pt"
 viewBox="0.00 0.00 636.00 284.00" xmlns="http://www.w3.org/2000/svg" xmlns:xlink="http://www.w3.org/1999/xlink">
<g id="graph0" class="graph" transform="scale(1 1) rotate(0) translate(4 280)">
<title>dependencies</title>
<polygon fill="#ffffff" stroke="transparent" points="-4,4 -4,-280 632,-280 632,4 -4,4"/>
<text text-anchor="start" x="293.0091" y="-42.4" font-family="sans-serif" font-weight="bold" font-size="14.00" fill="#000000">Legend</text>
<polygon fill="#ffffb3" stroke="transparent" points="80,-10 80,-30 100,-30 100,-10 80,-10"/>
<text text-anchor="start" x="103.629" y="-15.4" font-family="sans-serif" font-size="14.00" fill="#000000"> &#160;Declarations</text>
<polygon fill="#8dd3c7" stroke="transparent" points="193,-10 193,-30 213,-30 213,-10 193,-10"/>
<text text-anchor="start" x="216.7251" y="-15.4" font-family="sans-serif" font-size="14.00" fill="#000000"> &#160;Module</text>
<polygon fill="#80b1d3" stroke="transparent" points="279,-10 279,-30 299,-30 299,-10 279,-10"/>
<text text-anchor="start" x="302.7812" y="-15.4" font-family="sans-serif" font-size="14.00" fill="#000000"> &#160;Bootstrap</text>
<polygon fill="#fdb462" stroke="transparent" points="376,-10 376,-30 396,-30 396,-10 376,-10"/>
<text text-anchor="start" x="399.6732" y="-15.4" font-family="sans-serif" font-size="14.00" fill="#000000"> &#160;Providers</text>
<polygon fill="#fb8072" stroke="transparent" points="472,-10 472,-30 492,-30 492,-10 472,-10"/>
<text text-anchor="start" x="495.7258" y="-15.4" font-family="sans-serif" font-size="14.00" fill="#000000"> &#160;Exports</text>
<g id="clust1" class="cluster">
<title>cluster_AppModule</title>
<polygon fill="none" stroke="#000000" stroke-dasharray="1,5" points="8,-70 8,-268 620,-268 620,-70 8,-70"/>
</g>
<g id="clust2" class="cluster">
<title>cluster_AppModule_declarations</title>
<polygon fill="none" stroke="#000000" points="16,-78 16,-130 612,-130 612,-78 16,-78"/>
</g>
<g id="clust9" class="cluster">
<title>cluster_AppModule_bootstrap</title>
<polygon fill="none" stroke="#000000" points="281,-208 281,-260 405,-260 405,-208 281,-208"/>
</g>
<!-- AppComponent -->
<g id="node1" class="node">
<title>AppComponent</title>
<polygon fill="#ffffb3" stroke="#000000" points="603.9399,-122 498.0601,-122 498.0601,-86 603.9399,-86 603.9399,-122"/>
<text text-anchor="middle" x="551" y="-99.8" font-family="Times,serif" font-size="14.00" fill="#000000">AppComponent</text>
</g>
<!-- AppModule -->
<g id="node5" class="node">
<title>AppModule</title>
<polygon fill="#8dd3c7" stroke="#000000" points="384.6571,-187 381.6571,-191 360.6571,-191 357.6571,-187 301.3429,-187 301.3429,-151 384.6571,-151 384.6571,-187"/>
<text text-anchor="middle" x="343" y="-164.8" font-family="Times,serif" font-size="14.00" fill="#000000">AppModule</text>
</g>
<!-- AppComponent&#45;&gt;AppModule -->
<g id="edge1" class="edge">
<title>AppComponent&#45;&gt;AppModule</title>
<path fill="none" stroke="#000000" d="M551,-122.1061C551,-141.3391 551,-169 551,-169 551,-169 395.0919,-169 395.0919,-169"/>
<polygon fill="#000000" stroke="#000000" points="395.0919,-165.5001 385.0919,-169 395.0919,-172.5001 395.0919,-165.5001"/>
</g>
<!-- BoardComponent -->
<g id="node2" class="node">
<title>BoardComponent</title>
<polygon fill="#ffffb3" stroke="#000000" points="480.5451,-122 365.4549,-122 365.4549,-86 480.5451,-86 480.5451,-122"/>
<text text-anchor="middle" x="423" y="-99.8" font-family="Times,serif" font-size="14.00" fill="#000000">BoardComponent</text>
</g>
<!-- BoardComponent&#45;&gt;AppModule -->
<g id="edge2" class="edge">
<title>BoardComponent&#45;&gt;AppModule</title>
<path fill="none" stroke="#000000" d="M375.0281,-122.1061C375.0281,-122.1061 375.0281,-140.991 375.0281,-140.991"/>
<polygon fill="#000000" stroke="#000000" points="371.5281,-140.9909 375.0281,-150.991 378.5281,-140.991 371.5281,-140.9909"/>
</g>
<!-- DocumentationComponent -->
<g id="node3" class="node">
<title>DocumentationComponent</title>
<polygon fill="#ffffb3" stroke="#000000" points="346.6456,-122 179.3544,-122 179.3544,-86 346.6456,-86 346.6456,-122"/>
<text text-anchor="middle" x="263" y="-99.8" font-family="Times,serif" font-size="14.00" fill="#000000">DocumentationComponent</text>
</g>
<!-- DocumentationComponent&#45;&gt;AppModule -->
<g id="edge3" class="edge">
<title>DocumentationComponent&#45;&gt;AppModule</title>
<path fill="none" stroke="#000000" d="M323.9972,-122.1061C323.9972,-122.1061 323.9972,-140.991 323.9972,-140.991"/>
<polygon fill="#000000" stroke="#000000" points="320.4973,-140.9909 323.9972,-150.991 327.4973,-140.991 320.4973,-140.9909"/>
</g>
<!-- UserInputComponent -->
<g id="node4" class="node">
<title>UserInputComponent</title>
<polygon fill="#ffffb3" stroke="#000000" points="161.8104,-122 24.1896,-122 24.1896,-86 161.8104,-86 161.8104,-122"/>
<text text-anchor="middle" x="93" y="-99.8" font-family="Times,serif" font-size="14.00" fill="#000000">UserInputComponent</text>
</g>
<!-- UserInputComponent&#45;&gt;AppModule -->
<g id="edge4" class="edge">
<title>UserInputComponent&#45;&gt;AppModule</title>
<path fill="none" stroke="#000000" d="M93,-122.1061C93,-141.3391 93,-169 93,-169 93,-169 291.1556,-169 291.1556,-169"/>
<polygon fill="#000000" stroke="#000000" points="291.1557,-172.5001 301.1556,-169 291.1556,-165.5001 291.1557,-172.5001"/>
</g>
<!-- AppComponent  -->
<g id="node6" class="node">
<title>AppComponent </title>
<polygon fill="#80b1d3" stroke="#000000" points="397.439,-252 288.561,-252 288.561,-216 397.439,-216 397.439,-252"/>
<text text-anchor="middle" x="343" y="-229.8" font-family="Times,serif" font-size="14.00" fill="#000000">AppComponent </text>
</g>
<!-- AppModule&#45;&gt;AppComponent  -->
<g id="edge5" class="edge">
<title>AppModule&#45;&gt;AppComponent </title>
<path fill="none" stroke="#000000" stroke-dasharray="1,5" d="M343,-187.1061C343,-187.1061 343,-205.991 343,-205.991"/>
<polygon fill="#000000" stroke="#000000" points="339.5001,-205.9909 343,-215.991 346.5001,-205.991 339.5001,-205.9909"/>
</g>
</g>
</svg>
